<mxfile host="Electron" agent="Mozilla/5.0 (Windows NT 10.0; Win64; x64) AppleWebKit/537.36 (KHTML, like Gecko) draw.io/26.0.16 Chrome/132.0.6834.196 Electron/34.2.0 Safari/537.36" version="26.0.16" pages="2">
  <diagram name="Page-1" id="xsfzn51YltU21-Fv0yl1">
    <mxGraphModel dx="619" dy="726" grid="1" gridSize="10" guides="1" tooltips="1" connect="1" arrows="1" fold="1" page="1" pageScale="1" pageWidth="850" pageHeight="1100" math="0" shadow="0">
      <root>
        <mxCell id="0" />
        <mxCell id="1" parent="0" />
        <mxCell id="trjEK-N_bhUyEqZXemwE-7" style="edgeStyle=orthogonalEdgeStyle;rounded=0;orthogonalLoop=1;jettySize=auto;html=1;" parent="1" source="trjEK-N_bhUyEqZXemwE-4" target="trjEK-N_bhUyEqZXemwE-6" edge="1">
          <mxGeometry relative="1" as="geometry" />
        </mxCell>
        <mxCell id="trjEK-N_bhUyEqZXemwE-4" value="Tilemap is wiped clean via UnpaintTiles" style="rounded=0;whiteSpace=wrap;html=1;" parent="1" vertex="1">
          <mxGeometry x="40" y="55" width="120" height="60" as="geometry" />
        </mxCell>
        <mxCell id="trjEK-N_bhUyEqZXemwE-9" style="edgeStyle=orthogonalEdgeStyle;rounded=0;orthogonalLoop=1;jettySize=auto;html=1;" parent="1" source="trjEK-N_bhUyEqZXemwE-6" target="trjEK-N_bhUyEqZXemwE-8" edge="1">
          <mxGeometry relative="1" as="geometry" />
        </mxCell>
        <mxCell id="trjEK-N_bhUyEqZXemwE-6" value="Lock Timer is incremented to give last frame movement window" style="rounded=0;whiteSpace=wrap;html=1;" parent="1" vertex="1">
          <mxGeometry x="200" y="55" width="120" height="60" as="geometry" />
        </mxCell>
        <mxCell id="trjEK-N_bhUyEqZXemwE-11" style="edgeStyle=orthogonalEdgeStyle;rounded=0;orthogonalLoop=1;jettySize=auto;html=1;" parent="1" source="trjEK-N_bhUyEqZXemwE-8" target="trjEK-N_bhUyEqZXemwE-10" edge="1">
          <mxGeometry relative="1" as="geometry" />
        </mxCell>
        <mxCell id="trjEK-N_bhUyEqZXemwE-8" value="Rotation inputs are processed" style="rounded=0;whiteSpace=wrap;html=1;shape=process;backgroundOutline=1;" parent="1" vertex="1">
          <mxGeometry x="360" y="55" width="120" height="60" as="geometry" />
        </mxCell>
        <mxCell id="trjEK-N_bhUyEqZXemwE-14" style="edgeStyle=orthogonalEdgeStyle;rounded=0;orthogonalLoop=1;jettySize=auto;html=1;" parent="1" source="trjEK-N_bhUyEqZXemwE-10" target="trjEK-N_bhUyEqZXemwE-12" edge="1">
          <mxGeometry relative="1" as="geometry" />
        </mxCell>
        <mxCell id="trjEK-N_bhUyEqZXemwE-10" value="If current time is greater than movement timer, process move inputs" style="rounded=0;whiteSpace=wrap;html=1;shape=process;backgroundOutline=1;" parent="1" vertex="1">
          <mxGeometry x="520" y="40" width="120" height="90" as="geometry" />
        </mxCell>
        <mxCell id="trjEK-N_bhUyEqZXemwE-16" style="edgeStyle=orthogonalEdgeStyle;rounded=0;orthogonalLoop=1;jettySize=auto;html=1;" parent="1" source="trjEK-N_bhUyEqZXemwE-12" target="trjEK-N_bhUyEqZXemwE-15" edge="1">
          <mxGeometry relative="1" as="geometry" />
        </mxCell>
        <mxCell id="trjEK-N_bhUyEqZXemwE-12" value="Move piece down one row" style="rounded=0;whiteSpace=wrap;html=1;" parent="1" vertex="1">
          <mxGeometry x="680" y="55" width="120" height="60" as="geometry" />
        </mxCell>
        <mxCell id="trjEK-N_bhUyEqZXemwE-15" value="Lock in all tiles via PainTiles" style="rounded=0;whiteSpace=wrap;html=1;" parent="1" vertex="1">
          <mxGeometry x="840" y="55" width="120" height="60" as="geometry" />
        </mxCell>
        <mxCell id="trjEK-N_bhUyEqZXemwE-17" value="" style="swimlane;startSize=0;" parent="1" vertex="1">
          <mxGeometry x="455" y="220" width="555" height="290" as="geometry" />
        </mxCell>
        <mxCell id="trjEK-N_bhUyEqZXemwE-19" value="Create mock of the intended position" style="rounded=0;whiteSpace=wrap;html=1;" parent="trjEK-N_bhUyEqZXemwE-17" vertex="1">
          <mxGeometry x="25" y="20" width="120" height="60" as="geometry" />
        </mxCell>
        <mxCell id="trjEK-N_bhUyEqZXemwE-20" value="Test if the intended position is valid" style="rounded=0;whiteSpace=wrap;html=1;" parent="trjEK-N_bhUyEqZXemwE-17" vertex="1">
          <mxGeometry x="185" y="20" width="120" height="60" as="geometry" />
        </mxCell>
        <mxCell id="trjEK-N_bhUyEqZXemwE-24" value="Update position to new position" style="rounded=0;whiteSpace=wrap;html=1;" parent="trjEK-N_bhUyEqZXemwE-17" vertex="1">
          <mxGeometry x="345" y="20" width="120" height="60" as="geometry" />
        </mxCell>
        <mxCell id="trjEK-N_bhUyEqZXemwE-23" value="Move time is incremented" style="rounded=0;whiteSpace=wrap;html=1;" parent="trjEK-N_bhUyEqZXemwE-17" vertex="1">
          <mxGeometry x="345" y="100" width="120" height="60" as="geometry" />
        </mxCell>
        <mxCell id="trjEK-N_bhUyEqZXemwE-25" value="Lock timer is reset" style="rounded=0;whiteSpace=wrap;html=1;" parent="trjEK-N_bhUyEqZXemwE-17" vertex="1">
          <mxGeometry x="345" y="180" width="120" height="60" as="geometry" />
        </mxCell>
      </root>
    </mxGraphModel>
  </diagram>
  <diagram id="XzK21CoemzZGoUQgBb3T" name="Page-2">
    <mxGraphModel dx="1154" dy="582" grid="1" gridSize="10" guides="1" tooltips="1" connect="1" arrows="1" fold="1" page="1" pageScale="1" pageWidth="850" pageHeight="1100" math="0" shadow="0">
      <root>
        <mxCell id="0" />
        <mxCell id="1" parent="0" />
        <mxCell id="i2_EIGkTncLvoZjx5Brx-25" value="Awake()" style="swimlane;whiteSpace=wrap;html=1;strokeColor=default;align=left;verticalAlign=top;spacingLeft=16;fontFamily=Helvetica;fontSize=12;fontColor=default;fontStyle=1;fillColor=default;" parent="1" vertex="1">
          <mxGeometry x="40" y="40" width="1640" height="320" as="geometry" />
        </mxCell>
        <mxCell id="i2_EIGkTncLvoZjx5Brx-26" value="Board" style="swimlane;whiteSpace=wrap;html=1;strokeColor=default;align=left;verticalAlign=top;spacingLeft=16;fontFamily=Helvetica;fontSize=12;fontColor=default;fontStyle=1;fillColor=default;resizeHeight=0;resizeWidth=0;" parent="i2_EIGkTncLvoZjx5Brx-25" vertex="1">
          <mxGeometry x="440" y="50" width="360" height="240" as="geometry" />
        </mxCell>
        <mxCell id="i2_EIGkTncLvoZjx5Brx-28" value="Find TileMap" style="rounded=0;whiteSpace=wrap;html=1;" parent="i2_EIGkTncLvoZjx5Brx-26" vertex="1">
          <mxGeometry x="40" y="40" width="120" height="60" as="geometry" />
        </mxCell>
        <mxCell id="i2_EIGkTncLvoZjx5Brx-30" value="Find ActivePieceController" style="rounded=0;whiteSpace=wrap;html=1;" parent="i2_EIGkTncLvoZjx5Brx-26" vertex="1">
          <mxGeometry x="200" y="40" width="120" height="60" as="geometry" />
        </mxCell>
        <mxCell id="i2_EIGkTncLvoZjx5Brx-29" style="edgeStyle=orthogonalEdgeStyle;rounded=0;orthogonalLoop=1;jettySize=auto;html=1;entryX=0.5;entryY=0;entryDx=0;entryDy=0;" parent="i2_EIGkTncLvoZjx5Brx-26" source="i2_EIGkTncLvoZjx5Brx-30" target="i2_EIGkTncLvoZjx5Brx-31" edge="1">
          <mxGeometry relative="1" as="geometry" />
        </mxCell>
        <mxCell id="i2_EIGkTncLvoZjx5Brx-27" style="edgeStyle=orthogonalEdgeStyle;rounded=0;orthogonalLoop=1;jettySize=auto;html=1;entryX=0.5;entryY=0;entryDx=0;entryDy=0;" parent="i2_EIGkTncLvoZjx5Brx-26" source="i2_EIGkTncLvoZjx5Brx-28" target="i2_EIGkTncLvoZjx5Brx-31" edge="1">
          <mxGeometry relative="1" as="geometry" />
        </mxCell>
        <mxCell id="i2_EIGkTncLvoZjx5Brx-31" value="Initialize All Shapes" style="rounded=0;whiteSpace=wrap;html=1;" parent="i2_EIGkTncLvoZjx5Brx-26" vertex="1">
          <mxGeometry x="120" y="160" width="120" height="60" as="geometry" />
        </mxCell>
        <mxCell id="i2_EIGkTncLvoZjx5Brx-32" value="Shape" style="swimlane;whiteSpace=wrap;html=1;strokeColor=default;align=left;verticalAlign=top;spacingLeft=16;fontFamily=Helvetica;fontSize=12;fontColor=default;fontStyle=1;fillColor=default;" parent="i2_EIGkTncLvoZjx5Brx-25" vertex="1">
          <mxGeometry x="840" y="170" width="200" height="120" as="geometry" />
        </mxCell>
        <mxCell id="i2_EIGkTncLvoZjx5Brx-21" value="Set Cells and Wall Kick Vectors" style="rounded=0;whiteSpace=wrap;html=1;" parent="i2_EIGkTncLvoZjx5Brx-32" vertex="1">
          <mxGeometry x="40" y="40" width="120" height="60" as="geometry" />
        </mxCell>
        <mxCell id="i2_EIGkTncLvoZjx5Brx-33" style="edgeStyle=orthogonalEdgeStyle;rounded=0;orthogonalLoop=1;jettySize=auto;html=1;entryX=0;entryY=0.5;entryDx=0;entryDy=0;fontFamily=Helvetica;fontSize=12;fontColor=default;fontStyle=1;" parent="i2_EIGkTncLvoZjx5Brx-25" source="i2_EIGkTncLvoZjx5Brx-31" target="i2_EIGkTncLvoZjx5Brx-21" edge="1">
          <mxGeometry relative="1" as="geometry" />
        </mxCell>
        <mxCell id="i2_EIGkTncLvoZjx5Brx-41" value="Update()" style="swimlane;whiteSpace=wrap;html=1;strokeColor=default;align=left;verticalAlign=top;spacingLeft=16;fontFamily=Helvetica;fontSize=12;fontColor=default;fontStyle=1;fillColor=default;" parent="1" vertex="1">
          <mxGeometry x="40" y="400" width="2440" height="1760" as="geometry" />
        </mxCell>
        <mxCell id="i2_EIGkTncLvoZjx5Brx-42" value="ActivePieceController" style="swimlane;whiteSpace=wrap;html=1;strokeColor=default;align=left;verticalAlign=top;spacingLeft=16;fontFamily=Helvetica;fontSize=12;fontColor=default;fontStyle=1;fillColor=default;resizeHeight=0;resizeWidth=0;" parent="i2_EIGkTncLvoZjx5Brx-41" vertex="1">
          <mxGeometry x="40" y="40" width="1840" height="1680" as="geometry" />
        </mxCell>
        <mxCell id="i2_EIGkTncLvoZjx5Brx-44" value="Ask Board to UnpaintTiles" style="rounded=0;whiteSpace=wrap;html=1;" parent="i2_EIGkTncLvoZjx5Brx-42" vertex="1">
          <mxGeometry x="40" y="60" width="120" height="60" as="geometry" />
        </mxCell>
        <mxCell id="i2_EIGkTncLvoZjx5Brx-88" style="edgeStyle=orthogonalEdgeStyle;rounded=0;orthogonalLoop=1;jettySize=auto;html=1;entryX=0;entryY=0.25;entryDx=0;entryDy=0;fontFamily=Helvetica;fontSize=12;fontColor=default;fontStyle=1;" parent="i2_EIGkTncLvoZjx5Brx-42" source="i2_EIGkTncLvoZjx5Brx-60" target="i2_EIGkTncLvoZjx5Brx-85" edge="1">
          <mxGeometry relative="1" as="geometry" />
        </mxCell>
        <mxCell id="i2_EIGkTncLvoZjx5Brx-60" value="Increment LockTime" style="rounded=0;whiteSpace=wrap;html=1;" parent="i2_EIGkTncLvoZjx5Brx-42" vertex="1">
          <mxGeometry x="40" y="160" width="120" height="60" as="geometry" />
        </mxCell>
        <mxCell id="i2_EIGkTncLvoZjx5Brx-71" style="edgeStyle=orthogonalEdgeStyle;rounded=0;orthogonalLoop=1;jettySize=auto;html=1;entryX=0.5;entryY=0;entryDx=0;entryDy=0;fontFamily=Helvetica;fontSize=12;fontColor=default;fontStyle=1;" parent="i2_EIGkTncLvoZjx5Brx-42" source="i2_EIGkTncLvoZjx5Brx-64" target="i2_EIGkTncLvoZjx5Brx-65" edge="1">
          <mxGeometry relative="1" as="geometry" />
        </mxCell>
        <mxCell id="i2_EIGkTncLvoZjx5Brx-64" value="Handle Hard Drop" style="rounded=0;whiteSpace=wrap;html=1;" parent="i2_EIGkTncLvoZjx5Brx-42" vertex="1">
          <mxGeometry x="50" y="960" width="120" height="60" as="geometry" />
        </mxCell>
        <mxCell id="i2_EIGkTncLvoZjx5Brx-72" style="edgeStyle=orthogonalEdgeStyle;rounded=0;orthogonalLoop=1;jettySize=auto;html=1;entryX=0.5;entryY=0;entryDx=0;entryDy=0;fontFamily=Helvetica;fontSize=12;fontColor=default;fontStyle=1;" parent="i2_EIGkTncLvoZjx5Brx-42" source="i2_EIGkTncLvoZjx5Brx-65" target="i2_EIGkTncLvoZjx5Brx-66" edge="1">
          <mxGeometry relative="1" as="geometry" />
        </mxCell>
        <mxCell id="i2_EIGkTncLvoZjx5Brx-65" value="Handle Move Inputs" style="rounded=0;whiteSpace=wrap;html=1;" parent="i2_EIGkTncLvoZjx5Brx-42" vertex="1">
          <mxGeometry x="50" y="1080" width="120" height="60" as="geometry" />
        </mxCell>
        <mxCell id="i2_EIGkTncLvoZjx5Brx-73" style="edgeStyle=orthogonalEdgeStyle;rounded=0;orthogonalLoop=1;jettySize=auto;html=1;entryX=0.5;entryY=0;entryDx=0;entryDy=0;fontFamily=Helvetica;fontSize=12;fontColor=default;fontStyle=1;" parent="i2_EIGkTncLvoZjx5Brx-42" source="i2_EIGkTncLvoZjx5Brx-66" target="i2_EIGkTncLvoZjx5Brx-67" edge="1">
          <mxGeometry relative="1" as="geometry" />
        </mxCell>
        <mxCell id="i2_EIGkTncLvoZjx5Brx-66" value="Step" style="rounded=0;whiteSpace=wrap;html=1;" parent="i2_EIGkTncLvoZjx5Brx-42" vertex="1">
          <mxGeometry x="50" y="1200" width="120" height="60" as="geometry" />
        </mxCell>
        <mxCell id="i2_EIGkTncLvoZjx5Brx-67" value="Ask Board to Paint Tiles" style="rounded=0;whiteSpace=wrap;html=1;" parent="i2_EIGkTncLvoZjx5Brx-42" vertex="1">
          <mxGeometry x="50" y="1320" width="120" height="60" as="geometry" />
        </mxCell>
        <mxCell id="i2_EIGkTncLvoZjx5Brx-106" style="edgeStyle=orthogonalEdgeStyle;rounded=0;orthogonalLoop=1;jettySize=auto;html=1;exitX=0.25;exitY=1;exitDx=0;exitDy=0;entryX=0.5;entryY=0;entryDx=0;entryDy=0;fontFamily=Helvetica;fontSize=12;fontColor=default;fontStyle=0;" parent="i2_EIGkTncLvoZjx5Brx-42" source="i2_EIGkTncLvoZjx5Brx-85" target="i2_EIGkTncLvoZjx5Brx-64" edge="1">
          <mxGeometry relative="1" as="geometry" />
        </mxCell>
        <mxCell id="i2_EIGkTncLvoZjx5Brx-85" value="Rotate(int direction)" style="swimlane;whiteSpace=wrap;html=1;strokeColor=default;align=left;verticalAlign=top;spacingLeft=16;fontFamily=Helvetica;fontSize=12;fontColor=default;fontStyle=1;fillColor=default;" parent="i2_EIGkTncLvoZjx5Brx-42" vertex="1">
          <mxGeometry x="160" y="280" width="1600" height="600" as="geometry" />
        </mxCell>
        <mxCell id="i2_EIGkTncLvoZjx5Brx-92" style="edgeStyle=orthogonalEdgeStyle;rounded=0;orthogonalLoop=1;jettySize=auto;html=1;entryX=0.5;entryY=0;entryDx=0;entryDy=0;fontFamily=Helvetica;fontSize=12;fontColor=default;fontStyle=0;" parent="i2_EIGkTncLvoZjx5Brx-85" source="i2_EIGkTncLvoZjx5Brx-86" target="i2_EIGkTncLvoZjx5Brx-91" edge="1">
          <mxGeometry relative="1" as="geometry" />
        </mxCell>
        <mxCell id="i2_EIGkTncLvoZjx5Brx-86" value="Save Original Rotation Index" style="rounded=0;whiteSpace=wrap;html=1;strokeColor=default;align=center;verticalAlign=middle;spacingLeft=0;fontFamily=Helvetica;fontSize=12;fontColor=default;fontStyle=0;fillColor=default;" parent="i2_EIGkTncLvoZjx5Brx-85" vertex="1">
          <mxGeometry x="80" y="40" width="120" height="60" as="geometry" />
        </mxCell>
        <mxCell id="i2_EIGkTncLvoZjx5Brx-90" style="edgeStyle=orthogonalEdgeStyle;rounded=0;orthogonalLoop=1;jettySize=auto;html=1;exitX=0;exitY=0.25;exitDx=0;exitDy=0;entryX=0;entryY=0.5;entryDx=0;entryDy=0;fontFamily=Helvetica;fontSize=12;fontColor=default;fontStyle=1;" parent="i2_EIGkTncLvoZjx5Brx-85" source="i2_EIGkTncLvoZjx5Brx-85" target="i2_EIGkTncLvoZjx5Brx-86" edge="1">
          <mxGeometry relative="1" as="geometry">
            <Array as="points">
              <mxPoint x="40" y="130" />
              <mxPoint x="40" y="70" />
            </Array>
          </mxGeometry>
        </mxCell>
        <mxCell id="i2_EIGkTncLvoZjx5Brx-100" style="edgeStyle=orthogonalEdgeStyle;rounded=0;orthogonalLoop=1;jettySize=auto;html=1;entryX=0;entryY=0.25;entryDx=0;entryDy=0;fontFamily=Helvetica;fontSize=12;fontColor=default;fontStyle=0;" parent="i2_EIGkTncLvoZjx5Brx-85" source="i2_EIGkTncLvoZjx5Brx-91" target="i2_EIGkTncLvoZjx5Brx-95" edge="1">
          <mxGeometry relative="1" as="geometry" />
        </mxCell>
        <mxCell id="i2_EIGkTncLvoZjx5Brx-91" value="Generate Test Rotation Index" style="rounded=0;whiteSpace=wrap;html=1;strokeColor=default;align=center;verticalAlign=middle;spacingLeft=0;fontFamily=Helvetica;fontSize=12;fontColor=default;fontStyle=0;fillColor=default;" parent="i2_EIGkTncLvoZjx5Brx-85" vertex="1">
          <mxGeometry x="80" y="160" width="120" height="60" as="geometry" />
        </mxCell>
        <mxCell id="i2_EIGkTncLvoZjx5Brx-95" value="ApplyRotationMatrix(int direction)" style="swimlane;whiteSpace=wrap;html=1;strokeColor=default;align=left;verticalAlign=top;spacingLeft=16;fontFamily=Helvetica;fontSize=12;fontColor=default;fontStyle=1;fillColor=default;" parent="i2_EIGkTncLvoZjx5Brx-85" vertex="1">
          <mxGeometry x="320" y="40" width="280" height="520" as="geometry" />
        </mxCell>
        <mxCell id="cFUVv5va99kzUhsg3ovp-7" style="edgeStyle=orthogonalEdgeStyle;rounded=0;orthogonalLoop=1;jettySize=auto;html=1;entryX=0.5;entryY=0;entryDx=0;entryDy=0;" edge="1" parent="i2_EIGkTncLvoZjx5Brx-95" source="i2_EIGkTncLvoZjx5Brx-97" target="cFUVv5va99kzUhsg3ovp-6">
          <mxGeometry relative="1" as="geometry" />
        </mxCell>
        <mxCell id="i2_EIGkTncLvoZjx5Brx-97" value="Get Rotation Matrix Constant" style="rounded=0;whiteSpace=wrap;html=1;strokeColor=default;align=center;verticalAlign=middle;spacingLeft=0;fontFamily=Helvetica;fontSize=12;fontColor=default;fontStyle=0;fillColor=default;" parent="i2_EIGkTncLvoZjx5Brx-95" vertex="1">
          <mxGeometry x="80" y="40" width="120" height="60" as="geometry" />
        </mxCell>
        <mxCell id="cFUVv5va99kzUhsg3ovp-5" style="edgeStyle=orthogonalEdgeStyle;rounded=0;orthogonalLoop=1;jettySize=auto;html=1;fontFamily=Helvetica;fontSize=12;fontColor=default;fontStyle=0;exitX=0;exitY=0.25;exitDx=0;exitDy=0;entryX=0;entryY=0.5;entryDx=0;entryDy=0;" edge="1" parent="i2_EIGkTncLvoZjx5Brx-95" source="i2_EIGkTncLvoZjx5Brx-95" target="i2_EIGkTncLvoZjx5Brx-97">
          <mxGeometry relative="1" as="geometry">
            <mxPoint x="20" y="150" as="sourcePoint" />
            <mxPoint x="110" y="130" as="targetPoint" />
            <Array as="points">
              <mxPoint x="40" y="130" />
              <mxPoint x="40" y="70" />
            </Array>
          </mxGeometry>
        </mxCell>
        <mxCell id="cFUVv5va99kzUhsg3ovp-9" style="edgeStyle=orthogonalEdgeStyle;rounded=0;orthogonalLoop=1;jettySize=auto;html=1;entryX=0.5;entryY=0;entryDx=0;entryDy=0;" edge="1" parent="i2_EIGkTncLvoZjx5Brx-95" source="cFUVv5va99kzUhsg3ovp-6" target="cFUVv5va99kzUhsg3ovp-8">
          <mxGeometry relative="1" as="geometry" />
        </mxCell>
        <mxCell id="cFUVv5va99kzUhsg3ovp-6" value="For Each Cell, Apply Rotation Matrix Transformations" style="rounded=0;whiteSpace=wrap;html=1;strokeColor=default;align=center;verticalAlign=middle;spacingLeft=0;fontFamily=Helvetica;fontSize=12;fontColor=default;fontStyle=0;fillColor=default;" vertex="1" parent="i2_EIGkTncLvoZjx5Brx-95">
          <mxGeometry x="80" y="160" width="120" height="60" as="geometry" />
        </mxCell>
        <mxCell id="cFUVv5va99kzUhsg3ovp-8" value="Reassign Rotated Matrix to Cell" style="rounded=0;whiteSpace=wrap;html=1;strokeColor=default;align=center;verticalAlign=middle;spacingLeft=0;fontFamily=Helvetica;fontSize=12;fontColor=default;fontStyle=0;fillColor=default;" vertex="1" parent="i2_EIGkTncLvoZjx5Brx-95">
          <mxGeometry x="80" y="280" width="120" height="60" as="geometry" />
        </mxCell>
        <mxCell id="i2_EIGkTncLvoZjx5Brx-102" value="TestWallKicks(int rotationIndex, int rotationDirection)" style="swimlane;whiteSpace=wrap;html=1;strokeColor=default;align=left;verticalAlign=top;spacingLeft=16;fontFamily=Helvetica;fontSize=12;fontColor=default;fontStyle=1;fillColor=default;startSize=40;" parent="i2_EIGkTncLvoZjx5Brx-85" vertex="1">
          <mxGeometry x="680" y="40" width="280" height="520" as="geometry" />
        </mxCell>
        <mxCell id="i2_EIGkTncLvoZjx5Brx-104" value="Set Rotation Index for Real" style="rounded=0;whiteSpace=wrap;html=1;strokeColor=default;align=center;verticalAlign=middle;spacingLeft=0;fontFamily=Helvetica;fontSize=12;fontColor=default;fontStyle=0;fillColor=default;" parent="i2_EIGkTncLvoZjx5Brx-85" vertex="1">
          <mxGeometry x="1000" y="40" width="120" height="60" as="geometry" />
        </mxCell>
        <mxCell id="i2_EIGkTncLvoZjx5Brx-105" value="Unapply Rotation Matrix" style="rounded=0;whiteSpace=wrap;html=1;strokeColor=default;align=center;verticalAlign=middle;spacingLeft=0;fontFamily=Helvetica;fontSize=12;fontColor=default;fontStyle=0;fillColor=default;" parent="i2_EIGkTncLvoZjx5Brx-85" vertex="1">
          <mxGeometry x="1160" y="40" width="120" height="60" as="geometry" />
        </mxCell>
        <mxCell id="cFUVv5va99kzUhsg3ovp-11" style="edgeStyle=orthogonalEdgeStyle;rounded=0;orthogonalLoop=1;jettySize=auto;html=1;entryX=0;entryY=0.25;entryDx=0;entryDy=0;" edge="1" parent="i2_EIGkTncLvoZjx5Brx-85" source="cFUVv5va99kzUhsg3ovp-8" target="i2_EIGkTncLvoZjx5Brx-102">
          <mxGeometry relative="1" as="geometry">
            <Array as="points">
              <mxPoint x="640" y="350" />
              <mxPoint x="640" y="170" />
            </Array>
          </mxGeometry>
        </mxCell>
        <mxCell id="i2_EIGkTncLvoZjx5Brx-51" value="Board" style="swimlane;whiteSpace=wrap;html=1;strokeColor=default;align=left;verticalAlign=top;spacingLeft=16;fontFamily=Helvetica;fontSize=12;fontColor=default;fontStyle=1;fillColor=default;resizeHeight=0;resizeWidth=0;" parent="i2_EIGkTncLvoZjx5Brx-41" vertex="1">
          <mxGeometry x="1960" y="40" width="360" height="1680" as="geometry" />
        </mxCell>
        <mxCell id="i2_EIGkTncLvoZjx5Brx-75" value="UnpaintTiles(ActivePieceController piece)" style="swimlane;whiteSpace=wrap;html=1;strokeColor=default;align=left;verticalAlign=top;spacingLeft=16;fontFamily=Helvetica;fontSize=12;fontColor=default;fontStyle=1;fillColor=default;" parent="i2_EIGkTncLvoZjx5Brx-51" vertex="1">
          <mxGeometry x="40" y="40" width="280" height="200" as="geometry" />
        </mxCell>
        <mxCell id="i2_EIGkTncLvoZjx5Brx-84" style="edgeStyle=orthogonalEdgeStyle;rounded=0;orthogonalLoop=1;jettySize=auto;html=1;entryX=0;entryY=0.75;entryDx=0;entryDy=0;fontFamily=Helvetica;fontSize=12;fontColor=default;fontStyle=1;" parent="i2_EIGkTncLvoZjx5Brx-75" source="i2_EIGkTncLvoZjx5Brx-82" target="i2_EIGkTncLvoZjx5Brx-75" edge="1">
          <mxGeometry relative="1" as="geometry">
            <Array as="points">
              <mxPoint x="140" y="150" />
            </Array>
          </mxGeometry>
        </mxCell>
        <mxCell id="i2_EIGkTncLvoZjx5Brx-82" value="For each cell in piece, set a null tile at (cell position + tetromino position)" style="rounded=0;whiteSpace=wrap;html=1;strokeColor=default;align=left;verticalAlign=top;spacingLeft=16;fontFamily=Helvetica;fontSize=12;fontColor=default;fontStyle=1;fillColor=default;" parent="i2_EIGkTncLvoZjx5Brx-75" vertex="1">
          <mxGeometry x="40" y="70" width="200" height="60" as="geometry" />
        </mxCell>
        <mxCell id="i2_EIGkTncLvoZjx5Brx-83" style="edgeStyle=orthogonalEdgeStyle;rounded=0;orthogonalLoop=1;jettySize=auto;html=1;exitX=0;exitY=0.25;exitDx=0;exitDy=0;entryX=0.5;entryY=0;entryDx=0;entryDy=0;fontFamily=Helvetica;fontSize=12;fontColor=default;fontStyle=1;" parent="i2_EIGkTncLvoZjx5Brx-75" source="i2_EIGkTncLvoZjx5Brx-75" target="i2_EIGkTncLvoZjx5Brx-82" edge="1">
          <mxGeometry relative="1" as="geometry">
            <Array as="points">
              <mxPoint x="140" y="50" />
            </Array>
          </mxGeometry>
        </mxCell>
        <mxCell id="i2_EIGkTncLvoZjx5Brx-78" style="edgeStyle=orthogonalEdgeStyle;rounded=0;orthogonalLoop=1;jettySize=auto;html=1;entryX=0;entryY=0.25;entryDx=0;entryDy=0;fontFamily=Helvetica;fontSize=12;fontColor=default;fontStyle=1;" parent="i2_EIGkTncLvoZjx5Brx-41" source="i2_EIGkTncLvoZjx5Brx-44" target="i2_EIGkTncLvoZjx5Brx-75" edge="1">
          <mxGeometry relative="1" as="geometry" />
        </mxCell>
        <mxCell id="i2_EIGkTncLvoZjx5Brx-79" style="edgeStyle=orthogonalEdgeStyle;rounded=0;orthogonalLoop=1;jettySize=auto;html=1;exitX=0;exitY=0.75;exitDx=0;exitDy=0;entryX=1;entryY=0.5;entryDx=0;entryDy=0;fontFamily=Helvetica;fontSize=12;fontColor=default;fontStyle=1;" parent="i2_EIGkTncLvoZjx5Brx-41" source="i2_EIGkTncLvoZjx5Brx-75" target="i2_EIGkTncLvoZjx5Brx-60" edge="1">
          <mxGeometry relative="1" as="geometry" />
        </mxCell>
      </root>
    </mxGraphModel>
  </diagram>
</mxfile>
